<svg version="1.1" id="Layer_1" xmlns="http://www.w3.org/2000/svg" xmlns:xlink="http://www.w3.org/1999/xlink" x="0px" y="0px"
	 width="100%" viewBox="0 0 122 81" enable-background="new 0 0 122 81" xml:space="preserve">
<path fill="none" opacity="1.000000" stroke="#000000" stroke-linecap="round" stroke-linejoin="round" stroke-width="3.000000"
	d="
M30.500000,21.500000 
	C28.521881,20.966812 29.528427,19.083376 29.152716,17.949402 
	C28.378437,15.612469 29.207155,12.446800 25.984045,11.557847 
	C21.875572,10.424706 17.771395,10.104872 13.980691,12.974493 
	C7.861716,17.606651 8.201508,30.643871 12.511245,35.990936 
	C15.148540,39.263020 18.581518,41.680393 22.029919,43.954632 
	C29.584387,48.936840 32.479259,55.630486 30.519539,64.504318 
	C28.842785,72.096825 20.834846,76.932091 13.513976,74.458633 
	C10.777167,73.533966 8.628651,71.948982 8.430795,68.503975 
	C8.276501,65.817459 7.500000,63.166668 7.000000,60.500000 
"/>
<path fill="none" opacity="1.000000" stroke="#000000" stroke-linecap="round" stroke-linejoin="round" stroke-width="3.000000"
	d="
M68.500000,14.000000 
	C69.160477,29.333334 69.241013,44.659527 68.678192,60.006535 
	C68.575966,62.794006 68.508804,65.666664 68.500000,68.500000 
"/>
<path fill="none" opacity="1.000000" stroke="#000000" stroke-linecap="round" stroke-linejoin="round" stroke-width="3.000000"
	d="
M34.500000,10.500000 
	C37.562435,16.301224 40.048630,22.356182 43.357716,28.082226 
	C49.841885,39.302425 55.499996,51.000000 61.499996,62.500000 
"/>
<path fill="none" opacity="1.000000" stroke="#000000" stroke-linecap="round" stroke-linejoin="round" stroke-width="5.000000"
	d="
M98.500000,43.499996 
	C100.333328,41.999996 102.254051,40.593925 103.984856,38.983719 
	C111.453308,32.035694 110.442169,19.653332 102.000999,13.998503 
	C99.098946,12.054383 95.515518,11.485804 92.547096,12.196659 
	C87.377838,13.434552 82.500000,12.554776 77.500000,12.000000 
"/>
<path fill="none" opacity="1.000000" stroke="#000000" stroke-linecap="round" stroke-linejoin="round" stroke-width="5.000000"
	d="
M87.000000,43.000000 
	C94.884705,41.869614 100.502747,43.660809 103.236511,52.426239 
	C104.970985,57.987595 109.158424,62.749596 111.948097,68.027435 
	C114.046021,71.996559 117.105095,73.944710 121.500000,74.000000 
"/>
<path fill="none" opacity="1.000000" stroke="#000000" stroke-linecap="round" stroke-linejoin="round" stroke-width="3.000000"
	d="
M38.499996,43.500000 
	C38.666664,53.083332 38.833332,62.666668 38.999996,72.250000 
"/>
<path fill="none" opacity="1.000000" stroke="#000000" stroke-linecap="round" stroke-linejoin="round" stroke-width="5.000000"
	d="
M85.500000,14.500000 
	C86.313385,32.500000 86.431335,50.499481 85.527946,68.501404 
	C85.478317,69.490547 85.833336,70.500000 86.000000,71.500000 
"/>
<path fill="none" opacity="1.000000" stroke="#000000" stroke-linecap="round" stroke-linejoin="round" stroke-width="3.000000"
	d="
M93.500000,74.000000 
	C88.243324,71.380241 82.836418,73.567841 77.500000,73.500000 
"/>
<path fill="none" opacity="1.000000" stroke="#000000" stroke-linecap="round" stroke-linejoin="round" stroke-width="3.000000"
	d="
M46.500000,74.000000 
	C41.200539,72.749405 35.833336,73.666580 30.500000,73.500000 
"/>
<path fill="none" opacity="1.000000" stroke="#000000" stroke-linecap="round" stroke-linejoin="round" stroke-width="3.000000"
	d="
M75.500000,12.000000 
	C70.833336,12.722107 66.166664,13.033928 61.500000,12.000000 
"/>
</svg>